<svg width="1728" height="4815" viewBox="0 0 1728 4815" fill="none" xmlns="http://www.w3.org/2000/svg">
<g clip-path="url(#clip0_32_23)">
<rect width="1728" height="4815" fill="white"/>
<g filter="url(#filter0_f_32_23)">
<path fill-rule="evenodd" clip-rule="evenodd" d="M1231.57 803.229C1425.22 795.596 1526.15 980.211 1636.62 1104.61C1721.46 1200.15 1803.07 1305.99 1780.05 1420.84C1759.22 1524.82 1615.46 1572.09 1527.01 1651.5C1425.39 1742.74 1384.87 1896.16 1231.57 1913.3C1073.87 1930.94 961.114 1806.94 837.336 1728.64C689.133 1634.88 446.098 1569.67 453.15 1420.84C460.214 1271.77 731.45 1241.34 865.465 1135.01C1001.79 1026.85 1037.45 810.882 1231.57 803.229Z" fill="#FACACA"/>
</g>
<g filter="url(#filter1_f_32_23)">
<path fill-rule="evenodd" clip-rule="evenodd" d="M408.574 659.531C472.985 651.143 534.663 678.212 587.175 716.443C651.603 763.349 730.964 815.359 732.064 895.045C733.167 975.021 651.368 1024.85 592.172 1078.64C537.237 1128.56 482.486 1182.16 408.574 1188.99C328.278 1196.4 249.015 1168.27 187.607 1116.01C120.687 1059.06 43.2462 980.625 63.1904 895.045C82.7943 810.925 199.771 806.265 271.133 757.604C319.472 724.642 350.556 667.087 408.574 659.531Z" fill="#E6E3AF"/>
</g>
<g filter="url(#filter2_f_32_23)">
<path fill-rule="evenodd" clip-rule="evenodd" d="M853.023 3093.85C982.838 3093.31 1124.22 3033.05 1225.57 3151.13C1333.46 3276.81 1346.6 3494.68 1367.74 3693.47C1394.73 3947.24 1494.08 4264.17 1362.06 4434.5C1229.35 4605.75 1029.77 4378.72 853.023 4357.61C703.633 4339.78 549.033 4435.99 421.149 4322.17C263.231 4181.62 92.6867 3962.13 106.823 3693.47C120.787 3428.07 322.525 3282.86 482.602 3154.22C595.68 3063.36 723.863 3094.39 853.023 3093.85Z" fill="#A3FEDD"/>
</g>
<g filter="url(#filter3_f_32_23)">
<path fill-rule="evenodd" clip-rule="evenodd" d="M944.177 1016.99C1029.73 992.001 1140.15 999.81 1196.03 1069.25C1250.76 1137.28 1209.98 1236.39 1188.87 1321.1C1173.97 1380.9 1135.28 1425.38 1095.54 1472.47C1049.68 1526.82 1013.8 1596.55 944.177 1611.08C863.247 1627.98 768.163 1613.87 712.935 1552.35C658.986 1492.25 664.095 1399.41 683.867 1321.1C699.511 1259.15 764.619 1231.64 806.171 1183.1C854.834 1126.24 872.342 1037.96 944.177 1016.99Z" fill="#9786FF"/>
</g>
<g filter="url(#filter4_f_32_23)">
<path fill-rule="evenodd" clip-rule="evenodd" d="M950.34 78.8743C1073.35 82.1118 1210.65 30.2965 1305.11 92.3974C1402.48 156.412 1399.37 271.803 1395.62 371.612C1392.01 467.649 1373.05 568.462 1284.73 634.785C1197.88 700 1069.59 716.768 950.34 705.968C843.761 696.316 771.584 630.288 684.968 580.467C569.537 514.073 393.925 482.418 369.04 371.612C343.121 256.201 445.584 136.245 571.019 73.0768C681.758 17.3098 818.946 75.4161 950.34 78.8743Z" fill="#828EFD"/>
</g>
<g filter="url(#filter5_f_32_23)">
<path fill-rule="evenodd" clip-rule="evenodd" d="M326.893 37.3183C403.187 46.2719 467.819 84.8029 525.794 135.198C589.789 190.824 659.12 249.808 668.319 334.099C678.274 425.317 647.157 525.656 574.527 581.733C506.465 634.285 411.081 615.226 326.893 597.716C261.976 584.215 215.719 538.608 164.531 496.462C103.962 446.591 23.2844 410.79 6.72411 334.099C-12.3592 245.724 8.79267 143.768 75.0995 82.3054C140.102 22.051 238.864 26.9874 326.893 37.3183Z" fill="#DAFFED"/>
</g>
<g filter="url(#filter6_f_32_23)">
<path fill-rule="evenodd" clip-rule="evenodd" d="M253.167 1341.7C332.436 1346.37 416.058 1376.4 467.749 1483.57C516.974 1585.62 510.425 1731.53 505.987 1865.85C501.903 1989.47 492.633 2117.36 443.893 2205.64C394.826 2294.51 322.283 2343.18 253.167 2323.76C190.758 2306.23 162.677 2185.68 114.395 2113.08C57.1442 2027 -33.4942 1995.46 -51.38 1865.85C-71.3431 1721.2 -36.2238 1560.93 23.9135 1457.43C83.2975 1355.22 170.643 1336.84 253.167 1341.7Z" fill="#E398EA"/>
</g>
<g filter="url(#filter7_f_32_23)">
<path fill-rule="evenodd" clip-rule="evenodd" d="M1568.94 485.145C1685.81 461.062 1846.93 447.033 1914.88 522.958C1983.81 599.973 1844.74 692.067 1837.25 784.932C1830.74 865.724 1934.49 949.472 1875.07 1016.76C1813.32 1086.68 1677.44 1106.78 1568.94 1088.76C1472.89 1072.81 1445.66 983.483 1372.93 933.367C1292.53 877.966 1128.53 867.251 1128 784.932C1127.47 702.688 1290.19 689.978 1371 635.034C1443.18 585.961 1475.35 504.432 1568.94 485.145Z" fill="#8EF77D"/>
</g>
</g>
<defs>
<filter id="filter0_f_32_23" x="-547" y="-197" width="3331" height="3112" filterUnits="userSpaceOnUse" color-interpolation-filters="sRGB">
<feFlood flood-opacity="0" result="BackgroundImageFix"/>
<feBlend mode="normal" in="SourceGraphic" in2="BackgroundImageFix" result="shape"/>
<feGaussianBlur stdDeviation="500" result="effect1_foregroundBlur_32_23"/>
</filter>
<filter id="filter1_f_32_23" x="-940" y="-342" width="2672.07" height="2532.16" filterUnits="userSpaceOnUse" color-interpolation-filters="sRGB">
<feFlood flood-opacity="0" result="BackgroundImageFix"/>
<feBlend mode="normal" in="SourceGraphic" in2="BackgroundImageFix" result="shape"/>
<feGaussianBlur stdDeviation="500" result="effect1_foregroundBlur_32_23"/>
</filter>
<filter id="filter2_f_32_23" x="-894" y="2078" width="3323" height="3420" filterUnits="userSpaceOnUse" color-interpolation-filters="sRGB">
<feFlood flood-opacity="0" result="BackgroundImageFix"/>
<feBlend mode="normal" in="SourceGraphic" in2="BackgroundImageFix" result="shape"/>
<feGaussianBlur stdDeviation="500" result="effect1_foregroundBlur_32_23"/>
</filter>
<filter id="filter3_f_32_23" x="-330" y="4" width="2553.39" height="2613.68" filterUnits="userSpaceOnUse" color-interpolation-filters="sRGB">
<feFlood flood-opacity="0" result="BackgroundImageFix"/>
<feBlend mode="normal" in="SourceGraphic" in2="BackgroundImageFix" result="shape"/>
<feGaussianBlur stdDeviation="500" result="effect1_foregroundBlur_32_23"/>
</filter>
<filter id="filter4_f_32_23" x="-635" y="-951" width="3032" height="2660" filterUnits="userSpaceOnUse" color-interpolation-filters="sRGB">
<feFlood flood-opacity="0" result="BackgroundImageFix"/>
<feBlend mode="normal" in="SourceGraphic" in2="BackgroundImageFix" result="shape"/>
<feGaussianBlur stdDeviation="500" result="effect1_foregroundBlur_32_23"/>
</filter>
<filter id="filter5_f_32_23" x="-1000" y="-969" width="2670.13" height="2585.01" filterUnits="userSpaceOnUse" color-interpolation-filters="sRGB">
<feFlood flood-opacity="0" result="BackgroundImageFix"/>
<feBlend mode="normal" in="SourceGraphic" in2="BackgroundImageFix" result="shape"/>
<feGaussianBlur stdDeviation="500" result="effect1_foregroundBlur_32_23"/>
</filter>
<filter id="filter6_f_32_23" x="-1057" y="341" width="2566" height="2987" filterUnits="userSpaceOnUse" color-interpolation-filters="sRGB">
<feFlood flood-opacity="0" result="BackgroundImageFix"/>
<feBlend mode="normal" in="SourceGraphic" in2="BackgroundImageFix" result="shape"/>
<feGaussianBlur stdDeviation="500" result="effect1_foregroundBlur_32_23"/>
</filter>
<filter id="filter7_f_32_23" x="128" y="-534" width="2806" height="2629" filterUnits="userSpaceOnUse" color-interpolation-filters="sRGB">
<feFlood flood-opacity="0" result="BackgroundImageFix"/>
<feBlend mode="normal" in="SourceGraphic" in2="BackgroundImageFix" result="shape"/>
<feGaussianBlur stdDeviation="500" result="effect1_foregroundBlur_32_23"/>
</filter>
<clipPath id="clip0_32_23">
<rect width="1728" height="4815" fill="white"/>
</clipPath>
</defs>
</svg>
